# xmcd CD database file generated by LOLA_Freedb v0.9beta0
# 
# Track frame offsets:
#      150
#      1297
#      16724
#      34534
#      48406
#      70218
#      87693
#      102609
#      121000
#      142883
#      161204
#      178984
#      195990
#      215968
#      235112
#      253643
#      275618
# 
# Disc length: 3912 seconds
# 
# Revision: 0 
# Processed by: cddbd v1.5.2PL0 Copyright (c) Steve Scherf et al.
# Submitted via: LOLA_Freedb v0.9beta0
# 
DISCID=ef0f4611
DTITLE=Rapsoul - Achterbahn
DYEAR=1900
DGENRE=
TTITLE0=Rapsoul - Achterbahn Intro
TTITLE1=Rapsoul - Laura
TTITLE2=Rapsoul - Erste Liebe
TTITLE3=Rapsoul - Bapbabelubah
TTITLE4=Rapsoul - Sterben für Dich
TTITLE5=Rapsoul - FSK 16
TTITLE6=Rapsoul - König der Welt
TTITLE7=Rapsoul - Achterbahn
TTITLE8=Rapsoul - Du siehst es doch genau
TTITLE9=Rapsoul - ChaChaCha ( Bonus Track )
TTITLE10=Repsoul - Sag ja
TTITLE11=Rapsoul - Trennung für immer
TTITLE12=Rapsoul - Als ich 16 war
TTITLE13=Rapsoul - Sag Du liebst
TTITLE14=Rapsoul - Heimweh ( Bonus Track )
TTITLE15=Rapsoul - Meine Musik
TTITLE16=Repsoul - Der letzte Marsch
EXTD=
EXTT0=
EXTT1=
EXTT2=
EXTT3=
EXTT4=
EXTT5=
EXTT6=
EXTT7=
EXTT8=
EXTT9=
EXTT10=
EXTT11=
EXTT12=
EXTT13=
EXTT14=
EXTT15=
EXTT16=
PLAYORDER=
